<?xml version="1.0" encoding="UTF-8"?>
<svg width="30px" height="30px" viewBox="0 0 30 30" version="1.1" xmlns="http://www.w3.org/2000/svg" xmlns:xlink="http://www.w3.org/1999/xlink">
    <!-- Generator: Sketch 53.2 (72643) - https://sketchapp.com -->
    <title>pinterest-light</title>
    <desc>Created with Sketch.</desc>
    <g id="pinterest-light" stroke="none" stroke-width="1" fill="none" fill-rule="evenodd">
        <g transform="translate(0.000000, 0.000000)">
            <rect id="Rectangle" x="0" y="0" width="30" height="30"></rect>
            <circle id="Oval" stroke="#EA5550" cx="15" cy="15" r="14.5"></circle>
            <path d="M8.18181818,13.8608057 C8.18181818,15.6124049 8.84109531,17.1704386 10.2541497,17.7511349 C10.4859528,17.8462393 10.6932972,17.7544915 10.760559,17.4960313 C10.8072532,17.3175707 10.9178739,16.866664 10.9667916,16.678693 C11.0346093,16.4235894 11.0084828,16.3340794 10.8211502,16.1114232 C10.4142439,15.6275097 10.1535349,15.001499 10.1535349,14.1142309 C10.1535349,11.5413773 12.0663279,9.23761324 15.1353575,9.23761324 C17.8525131,9.23761324 19.3450588,10.9086534 19.3450588,13.1396906 C19.3450588,16.0756192 18.0537428,18.5539279 16.1376144,18.5539279 C15.0786574,18.5539279 14.2865243,17.6728136 14.5405628,16.5925396 C14.8446307,15.3024764 15.4333107,13.9100362 15.4333107,12.979132 C15.4333107,12.14557 14.9886044,11.4507484 14.0691741,11.4507484 C12.9874259,11.4507484 12.1174692,12.5768964 12.1174692,14.0856996 C12.1174692,15.0473729 12.4404371,15.69688 12.4404371,15.69688 C12.4404371,15.69688 11.3331184,20.4190929 11.1391153,21.2459417 C10.7527766,22.892926 11.0813034,24.9113769 11.1090976,25.1150122 C11.1252182,25.2358507 11.2791977,25.2649415 11.349239,25.1737532 C11.4492979,25.0422853 12.7372786,23.4411749 13.1764261,21.8417427 C13.2998321,21.3885983 13.8874004,19.0428763 13.8874004,19.0428763 C14.2392742,19.7175581 15.2665459,20.3116808 16.3588558,20.3116808 C19.6118826,20.3116808 21.8181818,17.3276406 21.8181818,13.333256 C21.8181818,10.3128523 19.2761293,7.5 15.4127431,7.5 C10.6060235,7.5 8.18181818,10.9685132 8.18181818,13.8608057 Z" id="Shape" fill="#EA5550"></path>
        </g>
    </g>
</svg>