<?xml version="1.0" encoding="UTF-8"?>
<svg width="62px" height="10px" viewBox="0 0 62 10" version="1.1" xmlns="http://www.w3.org/2000/svg" xmlns:xlink="http://www.w3.org/1999/xlink">
    <!-- Generator: Sketch 53.2 (72643) - https://sketchapp.com -->
    <title>Group 6</title>
    <desc>Created with Sketch.</desc>
    <defs>
        <polygon id="path-1" points="0.368705882 0.4338 19.0804706 0.4338 19.0804706 9.80170667 0.368705882 9.80170667"></polygon>
        <polygon id="path-3" points="0.368705882 0.4338 19.0804706 0.4338 19.0804706 9.80170667 0.368705882 9.80170667"></polygon>
        <polygon id="path-5" points="0.368705882 0.4338 19.0804706 0.4338 19.0804706 9.80170667 0.368705882 9.80170667"></polygon>
    </defs>
    <g id="Page-1" stroke="none" stroke-width="1" fill="none" fill-rule="evenodd">
        <g id="Design" transform="translate(-824.000000, -3041.000000)">
            <g id="Group-6" transform="translate(824.000000, 3041.000000)">
                <g id="Group-22" style="mix-blend-mode: multiply;" transform="translate(21.333333, 0.000000)">
                    <mask id="mask-2" fill="white">
                        <use xlink:href="#path-1"></use>
                    </mask>
                    <g id="Clip-21"></g>
                    <path d="M0.368705882,0.851773333 C3.77223529,3.97750667 6.96517647,6.90830667 10.1145882,9.80170667 C13.0322353,6.90037333 16.1275294,3.82337333 19.0804706,0.88804 C17.4604706,0.365573333 5.34752941,0.21824 0.368705882,0.851773333" id="Fill-20" fill="#30958C" mask="url(#mask-2)"></path>
                </g>
                <g id="Group-22" style="mix-blend-mode: multiply;" transform="translate(42.666667, 0.000000)">
                    <mask id="mask-4" fill="white">
                        <use xlink:href="#path-3"></use>
                    </mask>
                    <g id="Clip-21"></g>
                    <path d="M0.368705882,0.851773333 C3.77223529,3.97750667 6.96517647,6.90830667 10.1145882,9.80170667 C13.0322353,6.90037333 16.1275294,3.82337333 19.0804706,0.88804 C17.4604706,0.365573333 5.34752941,0.21824 0.368705882,0.851773333" id="Fill-20" fill="#30958C" mask="url(#mask-4)"></path>
                </g>
                <g id="Group-22" style="mix-blend-mode: multiply;">
                    <mask id="mask-6" fill="white">
                        <use xlink:href="#path-5"></use>
                    </mask>
                    <g id="Clip-21"></g>
                    <path d="M0.368705882,0.851773333 C3.77223529,3.97750667 6.96517647,6.90830667 10.1145882,9.80170667 C13.0322353,6.90037333 16.1275294,3.82337333 19.0804706,0.88804 C17.4604706,0.365573333 5.34752941,0.21824 0.368705882,0.851773333" id="Fill-20" fill="#30958C" mask="url(#mask-6)"></path>
                </g>
            </g>
        </g>
    </g>
</svg>