<?xml version="1.0" encoding="UTF-8"?>
<svg width="9px" height="18px" viewBox="0 0 9 18" version="1.1" xmlns="http://www.w3.org/2000/svg" xmlns:xlink="http://www.w3.org/1999/xlink">
    <!-- Generator: Sketch 59.1 (86144) - https://sketch.com -->
    <title>ico_chili</title>
    <desc>Created with Sketch.</desc>
    <g id="Design" stroke="none" stroke-width="1" fill="none" fill-rule="evenodd" stroke-linecap="round" stroke-linejoin="round">
        <g transform="translate(-623.000000, -1410.000000)" fill="#FFFFFF" id="Recipe-Grid" stroke="#AEB5BB">
            <g transform="translate(135.000000, 1154.000000)">
                <g id="Card" transform="translate(400.000000, 121.000000)">
                    <g id="Group-9" transform="translate(41.000000, 135.000000)">
                        <g id="ico_chili" transform="translate(47.250000, 0.000000)">
                            <path d="M2.96875542,0.5 C2.76019347,0.643874698 2.55421332,0.983696297 2.60779859,1.24712375 C2.99551386,1.45487927 3.38640936,1.61042926 3.61034245,1.97021124 C3.76181403,2.21674474 3.88230395,2.50045635 3.97422304,2.81974619 C3.49219496,3.16897659 3.31856432,3.77841564 3.29669592,4.34448658 C2.95567541,4.87103674 2.79671489,5.54473753 2.97073879,6.23997954 C4.02310635,10.4420578 3.08049114,13.4788919 0.806776043,15.5559329 C0.202514042,15.9268759 0.392490418,16.951826 1.09198853,16.951826 C1.18375374,16.951826 1.28417055,16.9342083 1.39282863,16.8951637 C4.43151025,15.8402159 6.34302036,13.1271474 7.06298484,10.5678196 C7.78753158,7.99070263 7.58544979,4.97523828 6.05859439,3.68948911 C5.99239076,3.63368386 5.92459701,3.58437335 5.8555722,3.5412338 C5.55575799,3.00285598 5.04721084,2.59361112 4.57559547,2.59361112 C4.56708065,2.59361112 4.55863421,2.59374444 4.55017068,2.59401109 C4.44337629,2.2283629 4.30006048,1.88937933 4.1118281,1.58597399 C3.82998393,1.12829475 3.4533482,0.760018186 2.96875542,0.5" id="ico_chili_path"></path>
                        </g>
                    </g>
                </g>
            </g>
        </g>
    </g>
</svg>