<?xml version="1.0" encoding="UTF-8"?>
<svg width="9px" height="18px" viewBox="0 0 9 18" version="1.1" xmlns="http://www.w3.org/2000/svg" xmlns:xlink="http://www.w3.org/1999/xlink">
    <!-- Generator: Sketch 53.2 (72643) - https://sketchapp.com -->
    <title>ico_chili-fill</title>
    <desc>Created with Sketch.</desc>
    <g id="ico_chili-fill" stroke="none" stroke-width="1" fill="none" fill-rule="evenodd" stroke-linecap="round" stroke-linejoin="round">
        <path d="M3.33984984,0.5 C3.10521765,0.643874698 2.87348999,0.983696297 2.93377342,1.24712375 C3.36995309,1.45487927 3.80971053,1.61042926 4.06163526,1.97021124 C4.23204078,2.21674474 4.36759195,2.50045635 4.47100092,2.81974619 C3.92871933,3.16897659 3.73338486,3.77841564 3.70878291,4.34448658 C3.32513484,4.87103674 3.14630425,5.54473753 3.34208114,6.23997954 C4.52599464,10.4420578 3.46555253,13.4788919 0.907623049,15.5559329 C0.227828297,15.9268759 0.44155172,16.951826 1.22848709,16.951826 C1.33172295,16.951826 1.44469187,16.9342083 1.56693221,16.8951637 C4.98544903,15.8402159 7.13589791,13.1271474 7.94585794,10.5678196 C8.76097303,7.99070263 8.53363101,4.97523828 6.81591869,3.68948911 C6.7414396,3.63368386 6.66517164,3.58437335 6.58751873,3.5412338 C6.25022774,3.00285598 5.6781122,2.59361112 5.14754491,2.59361112 C5.13796573,2.59361112 5.12846349,2.59374444 5.11894201,2.59401109 C4.99879833,2.2283629 4.83756804,1.88937933 4.62580662,1.58597399 C4.30873193,1.12829475 3.88501673,0.760018186 3.33984984,0.5" id="ico_chili_path" stroke="#EA5550" fill="#EA5550"></path>
    </g>
</svg>