<?xml version="1.0" encoding="UTF-8"?>
<svg width="123px" height="127px" viewBox="0 0 123 127" version="1.1" xmlns="http://www.w3.org/2000/svg" xmlns:xlink="http://www.w3.org/1999/xlink">
    <!-- Generator: Sketch 53.2 (72643) - https://sketchapp.com -->
    <title>Group 8</title>
    <desc>Created with Sketch.</desc>
    <g id="Page-1" stroke="none" stroke-width="1" fill="none" fill-rule="evenodd">
        <g id="Design" transform="translate(-371.000000, -3259.000000)" fill="#FFFFFF">
            <g id="Group-8" transform="translate(371.000000, 3259.000000)">
                <g id="Group-3">
                    <path d="M113.704183,90.7416591 C113.704183,105.608083 101.663644,117.703043 86.8637878,117.703043 L36.0959337,117.703043 C21.2960775,117.703043 9.25553884,105.608083 9.25553884,90.7416591 L9.25553884,36.3262687 C9.25553884,21.4595797 21.2960775,9.36488455 36.0959337,9.36488455 L86.8637878,9.36488455 C101.663644,9.36488455 113.704183,21.4595797 113.704183,36.3262687 L113.704183,90.7416591 Z M86.8637878,0.0676361169 L36.0959337,0.0676361169 C16.1926333,0.0676361169 -7.91845494e-05,16.333181 -7.91845494e-05,36.3262687 L-7.91845494e-05,90.7416591 C-7.91845494e-05,110.734482 16.1926333,127.000027 36.0959337,127.000027 L86.8637878,127.000027 C106.767088,127.000027 122.959537,110.734482 122.959537,90.7416591 L122.959537,36.3262687 C122.959537,16.333181 106.767088,0.0676361169 86.8637878,0.0676361169 L86.8637878,0.0676361169 Z" id="Fill-1"></path>
                </g>
                <path d="M61.4955843,86.5454853 C49.2494139,86.5454853 39.2865127,76.4342841 39.2865127,64.0058269 C39.2865127,57.8406429 41.7817808,51.8449099 46.1323697,47.5565162 C50.1384931,43.6078263 55.2986287,41.4546758 60.7229071,41.4546758 C60.9251621,41.4546758 61.1279438,41.4578831 61.3309888,41.4637631 C68.6882771,41.6815905 74.6087123,43.9980448 78.452347,48.1621566 C82.0273618,52.0354755 83.8439697,57.4710045 83.7059728,63.8807432 C83.4323492,76.5901042 73.6764432,86.5454853 61.4955843,86.5454853 M61.6601799,30.0140593 C52.941094,29.7556064 44.6315219,33.0679195 38.2689173,39.3394781 C31.7427706,45.7724696 28,54.7629954 28,64.0058269 C28,82.7504773 43.026123,98 61.4955843,98 C70.4137649,98 78.7865417,94.457565 85.0714572,88.0248408 C91.2723632,81.6781784 94.7947074,73.1925311 94.9898519,64.1311779 C95.193687,54.6651735 92.3234044,46.4355736 86.6897604,40.3313278 C80.7448334,33.8905854 72.0897424,30.3227595 61.6601799,30.0140593" id="Fill-4"></path>
                <path d="M95.5,21 C91.3577448,21 88,24.3578014 88,28.5001264 C88,32.6421986 91.3577448,36 95.5,36 C99.6420024,36 103,32.6421986 103,28.5001264 C103,24.3578014 99.6420024,21 95.5,21" id="Fill-6"></path>
            </g>
        </g>
    </g>
</svg>